PathFileType	4	(X/Y/Z)	Captury_Subj1_walk03.trc
DataRate	CameraRate	NumFrames	NumMarkers	Units	OrigDataRate	OrigDataStartFrame	OrigNumFrames
100.0	100.0	4	47	mm	59.99879837036133	76	121
Frame#	Time		LeftUpLeg_		RightUpLeg_		LeftLeg_		RightLeg_		LeftFoot_		RightFoot_		LeftToeBase_		RightToeBase_		Knee_Lateral_r		Knee_Lateral_l		Ankle_Lateral_r		Ankle_Lateral_l		LeftArm_		LeftForeArm_		LeftHand_		LeftHandEE		RightArm_		RightForeArm_		RightHand_		RightHandEE		Spine_		Spine1_		Spine2_		Spine3_		Spine4_		Spine5_		Spine_x		Spine_y		Spine_z		RASI		LASI		RIPS		LIPS		RTHI		LTHI		RTIB		LTIB		RTOE		LTOE		RHEE		LHEE		RHipAngles		LHipAngles		RKneeAngles		LKneeAngles		RAnkleAngles		LAnkleAngles
			X1	Y1	Z1	X2	Y2	Z2	X3	Y3	Z3	X4	Y4	Z4	X5	Y5	Z5	X6	Y6	Z6	X7	Y7	Z7	X8	Y8	Z8	X9	Y9	Z9	X10	Y10	Z10	X11	Y11	Z11	X12	Y12	Z12	X13	Y13	Z13	X14	Y14	Z14	X15	Y15	Z15	X16	Y16	Z16	X17	Y17	Z17	X18	Y18	Z18	X19	Y19	Z19	X20	Y20	Z20	X21	Y21	Z21	X22	Y22	Z22	X23	Y23	Z23	X24	Y24	Z24	X25	Y25	Z25	X26	Y26	Z26	X27	Y27	Z27	X28	Y28	Z28	X29	Y29	Z29	X30	Y30	Z30	X31	Y31	Z31	X32	Y32	Z32	X33	Y33	Z33	X34	Y34	Z34	X35	Y35	Z35	X36	Y36	Z36	X37	Y37	Z37	X38	Y38	Z38	X39	Y39	Z39	X40	Y40	Z40	X41	Y41	Z41	X42	Y42	Z42	X43	Y43	Z43	X44	Y44	Z44	X45	Y45	Z45	X46	Y46	Z46	X47	Y47	Z47

76	0.75000	356.01746	829.02271	64.78666	335.48148	827.86047	-99.88537	288.58151	437.04202	91.15996	222.73437	447.01309	-66.18968	592.54242	230.15036	78.40852	268.31421	82.36880	-48.41174	615.81348	105.85630	68.03023	153.52614	28.95539	-56.71669	220.20174	441.31229	-111.51485	293.40417	436.90240	136.65729	283.95325	78.56544	-94.98676	600.37317	248.02184	123.65856	349.44965	1308.25781	134.15063	339.35217	1041.61584	206.05923	208.67760	849.17017	225.89699	157.24339	781.53900	219.57617	349.03729	1308.87146	-128.42343	381.47705	1046.39172	-208.56580	371.03046	822.56433	-274.11630	386.15030	738.98309	-267.41010	371.05545	917.76117	-21.33562	360.23737	1014.92084	-19.14510	374.39584	1084.76758	-18.32680	409.47614	1168.48230	-17.01781	406.44989	1300.56104	-6.61939	4185915979477856304811803089567744.00000	0.00000	4185920931238013446332902686064640.00000	365.29532	917.43518	-67.52434	374.71677	964.15796	-22.11967	417.09998	914.03107	-27.05143	241.07144	897.89734	-145.71338	275.63214	899.85327	131.41890	391.87729	887.42426	-61.24564	401.09348	887.94580	12.65630	281.94766	640.83203	-148.54874	334.17923	645.00525	141.43063	227.03624	278.37567	-93.86543	462.62241	298.13870	118.35450	84.09288	12.07437	-59.99492	595.06543	37.51339	64.09858	319.00665	22.42602	-54.19373	663.49835	264.20901	77.16056	-11.20826	-5.43912	5.50461	-4.62024	-0.73803	-0.93573	-17.86107	0.85003	-0.02781	-60.03240	0.01541	-0.06493	1.81888	5.20471	12.41374	29.55188	-4.32973	2.25238
77	0.76000	342.42429	831.04752	64.16911	322.43680	830.16863	-100.57135	261.22600	441.90003	91.20996	219.20667	446.73554	-66.66251	561.69783	230.09395	77.46126	268.77219	82.62656	-48.88047	579.87493	105.11421	66.07533	154.06795	28.99392	-56.92196	216.47463	441.03653	-111.97603	265.96552	441.68644	136.71564	284.24199	78.79182	-95.50917	570.32853	247.65322	122.68257	336.34080	1310.87578	133.11764	329.62559	1043.87603	204.02903	205.35356	847.56019	225.96158	156.32031	778.16276	220.21706	334.88403	1311.25220	-129.66183	362.77433	1048.40720	-210.23085	343.90732	824.96697	-274.84697	356.21320	740.96609	-268.03397	357.76908	919.92789	-21.75188	346.94125	1017.09840	-19.53006	361.07435	1086.96367	-18.75033	396.09653	1170.71831	-17.61578	392.94621	1302.84209	-7.68167	4185915979477856304811803089567744.00000	0.00000	4185920931238013446332902686064640.00000	352.16279	919.68137	-67.95980	361.44345	966.32505	-22.44521	403.83138	916.19666	-27.32059	228.19611	900.30503	-146.59475	261.83374	901.78416	130.65274	378.71682	889.65364	-61.64344	387.68686	890.04807	12.28922	273.08858	642.00145	-149.14050	314.01163	648.14961	141.14308	225.18231	278.14106	-94.25536	433.00090	300.12073	117.79482	84.65394	12.00837	-60.06206	556.38539	37.71961	61.92066	319.56342	22.76626	-54.64912	633.90239	261.28883	75.72726	-9.78787	-5.76971	4.97007	-6.63446	-0.74695	-0.82768	-17.07010	0.77158	0.02310	-61.12557	-0.22151	-0.01490	1.29185	5.32605	12.38398	28.19695	-4.63803	1.74672
78	0.77000	328.89996	833.11687	63.59078	309.42634	832.42650	-101.21262	234.18342	447.00770	91.15536	215.75503	446.53909	-67.07756	530.37080	229.34695	76.53346	269.13764	82.96190	-49.31485	543.11108	103.75742	64.43106	154.51550	29.11529	-57.09523	212.82971	440.83150	-112.37805	238.87026	446.69919	136.66594	284.44421	79.09875	-95.99515	539.83809	246.56518	121.71907	323.20928	1313.38621	132.09962	319.95337	1046.03445	201.93279	202.22562	845.95583	226.10485	155.56733	774.87278	221.01725	320.88232	1313.52070	-130.80184	344.06262	1050.34597	-211.80247	316.80765	827.47351	-275.50667	325.95015	743.06727	-268.83339	344.54471	922.08636	-22.18416	333.70570	1019.27720	-19.96287	347.80817	1089.17117	-19.21919	382.76102	1172.97905	-18.21792	379.46019	1305.14993	-8.67136	4185915979477856304811803089567744.00000	0.00000	4185920931238013446332902686064640.00000	339.08256	921.89272	-68.40973	348.23787	968.48298	-22.81487	390.62293	918.34478	-27.61322	215.35468	902.64734	-147.45270	248.12753	903.80920	129.90072	365.60604	891.84851	-62.04362	374.34547	892.15836	11.91729	264.29101	643.16763	-149.67904	294.06849	651.40651	140.82030	223.33382	277.99493	-94.60089	403.16463	301.83523	117.21075	85.11819	12.03626	-60.09583	516.73395	37.44189	60.20280	320.02528	23.18314	-55.07981	603.81967	257.45290	74.25838	-8.35994	-6.06398	4.44389	-8.61026	-0.80138	-0.67970	-16.25226	0.70984	0.07391	-61.99918	-0.40164	0.03001	0.78937	5.43806	12.35788	26.87367	-4.84585	1.26994
79	0.78000	315.51331	835.27528	63.09085	296.48430	834.58381	-101.76447	207.76667	452.61468	90.89153	212.45550	446.50483	-67.37704	498.07891	227.21880	75.64458	269.31802	83.45238	-49.68051	504.69663	101.17124	63.40803	154.77455	29.40234	-57.20452	209.34915	440.76793	-112.66179	212.46180	452.16940	136.40013	284.47339	79.56677	-96.40825	508.45607	244.03831	120.78055	310.03245	1315.68154	131.11155	310.38986	1047.98936	199.70452	199.48986	844.36271	226.40547	155.15455	771.75533	222.13604	307.18372	1315.56475	-131.74508	325.33295	1052.13132	-213.18722	289.75491	830.18787	-276.02446	295.03523	745.40483	-269.98387	331.44436	924.22833	-22.64845	320.59127	1021.45846	-20.49137	334.65259	1091.40146	-19.77869	369.51373	1175.28926	-18.82840	366.00948	1307.51133	-9.51586	4185915979477856304811803089567744.00000	0.00000	4185920931238013446332902686064640.00000	326.10692	924.03440	-68.88859	335.16777	970.62261	-23.27280	377.53475	920.45796	-27.95279	202.58108	904.85889	-148.26383	234.60570	906.02258	129.17698	352.59462	893.97437	-62.44856	361.13452	894.28469	11.53566	255.61645	644.32731	-150.11115	274.57430	654.88848	140.42706	221.49623	278.02579	-94.85759	372.89882	303.01469	116.57789	85.38883	12.25195	-60.06286	475.13973	36.19626	59.40505	320.29732	23.75328	-55.46112	572.76340	251.78547	72.71837	-6.91692	-6.28561	3.93444	-10.50920	-0.94684	-0.45188	-15.38064	0.68151	0.12455	-62.43366	-0.46819	0.06469	0.33603	5.53140	12.33911	25.61372	-4.85272	0.85094
